<svg id="Composant_2_1" data-name="Composant 2 – 1" xmlns="http://www.w3.org/2000/svg" width="136" height="136" viewBox="0 0 136 136">
  <g id="Tracé_1" data-name="Tracé 1" fill="#1976d2">
    <path d="M 68 131 C 59.49284744262695 131 51.24282455444336 129.3349761962891 43.47908782958984 126.0511932373047 C 39.74715042114258 124.4727172851562 36.1473274230957 122.5187606811523 32.77958679199219 120.2435455322266 C 29.44254302978516 117.9891052246094 26.30439186096191 115.3998489379883 23.45226097106934 112.547737121582 C 20.60015296936035 109.6956100463867 18.01089096069336 106.5574569702148 15.75645637512207 103.2204132080078 C 13.48123931884766 99.85267639160156 11.52728271484375 96.25284576416016 9.948803901672363 92.52091217041016 C 6.665021896362305 84.75717163085938 5 76.50714874267578 5 68 C 5 59.49284744262695 6.665021896362305 51.24282455444336 9.948803901672363 43.47908782958984 C 11.52728271484375 39.74715042114258 13.48123931884766 36.1473274230957 15.75645637512207 32.77958679199219 C 18.01089096069336 29.44254302978516 20.60015296936035 26.30439186096191 23.45226097106934 23.45226097106934 C 26.30439186096191 20.60015296936035 29.44254302978516 18.01089096069336 32.77958679199219 15.75645637512207 C 36.1473274230957 13.48123931884766 39.74715042114258 11.52728271484375 43.47908782958984 9.948803901672363 C 51.24282455444336 6.665021896362305 59.49284744262695 5 68 5 C 76.50714874267578 5 84.75717163085938 6.665021896362305 92.52091217041016 9.948803901672363 C 96.25284576416016 11.52728271484375 99.85267639160156 13.48123931884766 103.2204132080078 15.75645637512207 C 106.5574569702148 18.01089096069336 109.6956100463867 20.60015296936035 112.547737121582 23.45226097106934 C 115.3998489379883 26.30439186096191 117.9891052246094 29.44254302978516 120.2435455322266 32.77958679199219 C 122.5187606811523 36.1473274230957 124.4727172851562 39.74715042114258 126.0511932373047 43.47908782958984 C 129.3349761962891 51.24282455444336 131 59.49284744262695 131 68 C 131 76.50714874267578 129.3349761962891 84.75717163085938 126.0511932373047 92.52091217041016 C 124.4727172851562 96.25284576416016 122.5187606811523 99.85267639160156 120.2435455322266 103.2204132080078 C 117.9891052246094 106.5574569702148 115.3998489379883 109.6956100463867 112.547737121582 112.547737121582 C 109.6956100463867 115.3998489379883 106.5574569702148 117.9891052246094 103.2204132080078 120.2435455322266 C 99.85267639160156 122.5187606811523 96.25284576416016 124.4727172851562 92.52091217041016 126.0511932373047 C 84.75717163085938 129.3349761962891 76.50714874267578 131 68 131 Z" stroke="none"/>
    <path d="M 68 10 C 36.01869201660156 10 10 36.01869201660156 10 68 C 10 99.98130798339844 36.01869201660156 126 68 126 C 99.98130798339844 126 126 99.98130798339844 126 68 C 126 36.01869201660156 99.98130798339844 10 68 10 M 68 0 C 105.5553588867188 0 136 30.44464111328125 136 68 C 136 105.5553588867188 105.5553588867188 136 68 136 C 30.44464111328125 136 0 105.5553588867188 0 68 C 0 30.44464111328125 30.44464111328125 0 68 0 Z" stroke="none" fill="#d12eae"/>
  </g>
  <path id="Union_2" data-name="Union 2" d="M26.725,62V54.13A23.541,23.541,0,0,1,7.871,35.276H0V26.725H7.871A23.542,23.542,0,0,1,26.725,7.871V0h8.552V7.871A23.541,23.541,0,0,1,54.13,26.725H62v8.552H54.13A23.54,23.54,0,0,1,35.276,54.13V62Z" transform="translate(37 37)" fill="#fff"/>
</svg>
